
          <svg data-logo="logo" xmlns="http://www.w3.org/2000/svg" viewBox="0 0 101 26">
            <g id="logogram" transform="translate(0, 13) rotate(0)"></g>
            <g id="logotype" transform="translate(0, 1)"><path fill="#023e8a" d="M7.67 24.49L7.67 24.49Q6.16 24.49 4.76 24.14Q3.36 23.79 2.14 23.02L2.14 23.02Q1.93 22.84 1.72 22.63Q1.51 22.43 1.40 22.18L1.40 22.18Q1.05 21.23 0.93 19.87Q0.81 18.50 0.84 17.11L0.84 17.11Q0.84 16.86 1.05 16.75Q1.26 16.65 1.54 16.65L1.54 16.65Q1.89 16.65 2.01 16.74Q2.14 16.82 2.28 17.07L2.28 17.07Q3.05 19.70 4.57 21.30Q6.09 22.91 8.12 22.91L8.12 22.91Q9.24 22.91 9.96 22.41Q10.68 21.90 11.06 21.11Q11.45 20.32 11.45 19.52L11.45 19.52Q11.45 18.40 11.01 17.63Q10.57 16.86 9.70 16.23Q8.82 15.60 7.46 14.86L7.46 14.86Q5.99 14.02 4.62 13.10Q3.26 12.17 2.38 10.84Q1.51 9.51 1.51 7.51L1.51 7.51Q1.51 5.45 2.57 3.94Q3.64 2.44 5.50 1.60Q7.35 0.76 9.66 0.76L9.66 0.76Q10.99 0.76 12.20 1.04Q13.41 1.32 14.14 1.60L14.14 1.60Q14.56 1.77 14.75 1.98Q14.95 2.19 15.09 2.72L15.09 2.72Q15.26 3.45 15.38 4.50Q15.51 5.55 15.51 6.81L15.51 6.81Q15.51 7.27 14.88 7.27L14.88 7.27Q14.56 7.27 14.30 7.11Q14.04 6.95 13.97 6.71L13.97 6.71Q13.37 4.61 12.22 3.52Q11.06 2.44 9.38 2.44L9.38 2.44Q8.33 2.44 7.60 2.79Q6.86 3.14 6.49 3.84Q6.13 4.54 6.13 5.59L6.13 5.59Q6.13 6.43 6.70 7.15Q7.28 7.86 8.37 8.60Q9.45 9.33 10.85 10.17L10.85 10.17Q12.74 11.29 13.86 12.38Q14.98 13.46 15.49 14.67Q16.00 15.88 16.00 17.45L16.00 17.45Q16.00 19.84 14.96 21.41Q13.93 22.98 12.06 23.74Q10.19 24.49 7.67 24.49ZM24.29 24.49L24.29 24.49Q22.40 24.49 20.91 23.49Q19.43 22.50 18.57 20.76Q17.71 19.03 17.71 16.82L17.71 16.82Q17.71 14.62 18.73 12.82Q19.74 11.01 21.49 9.95Q23.24 8.88 25.34 8.88L25.34 8.88Q26.85 8.88 28.04 9.53Q29.23 10.17 29.94 11.26Q30.66 12.34 30.66 13.71L30.66 13.71Q30.66 15.04 29.58 15.04L29.58 15.04L22.58 15.04Q22.09 15.04 21.86 15.32Q21.63 15.60 21.63 16.27L21.63 16.27Q21.63 17.59 22.23 18.70Q22.82 19.80 23.84 20.43Q24.85 21.06 26.18 21.06L26.18 21.06Q27.20 21.06 28.05 20.68Q28.91 20.29 29.75 19.63L29.75 19.63Q29.89 19.52 30.01 19.43Q30.14 19.34 30.24 19.34L30.24 19.34Q30.59 19.34 30.59 19.80L30.59 19.80Q30.59 20.18 30.31 20.85L30.31 20.85Q29.96 21.73 29.14 22.58Q28.32 23.44 27.09 23.96Q25.87 24.49 24.29 24.49ZM22.58 13.57L22.58 13.57L24.68 13.57Q25.66 13.57 26.04 13.53Q26.43 13.50 26.74 13.39L26.74 13.39Q26.92 13.32 27.02 13.04Q27.13 12.76 27.13 12.41L27.13 12.41Q27.13 11.47 26.48 10.87Q25.83 10.28 24.89 10.28L24.89 10.28Q24.15 10.28 23.50 10.68Q22.86 11.08 22.45 11.73Q22.05 12.38 22.09 13.08L22.09 13.08Q22.09 13.57 22.58 13.57ZM32.55 24.11L32.55 24.11Q32.30 24.11 32.08 23.98Q31.85 23.86 31.85 23.61L31.85 23.61Q31.85 23.34 32.09 23.18Q32.34 23.02 32.66 22.91L32.66 22.91Q33.18 22.74 33.58 22.51Q33.98 22.29 33.98 21.59L33.98 21.59L33.98 13.57Q33.98 12.80 33.76 12.27Q33.53 11.75 32.90 11.61L32.90 11.61Q32.76 11.57 32.64 11.43Q32.52 11.29 32.52 10.98L32.52 10.98Q32.52 10.49 32.87 10.38L32.87 10.38Q34.05 10.10 35.47 9.63Q36.89 9.16 37.91 8.63L37.91 8.63Q38.05 8.56 38.22 8.46Q38.39 8.35 38.53 8.35L38.53 8.35Q38.74 8.35 38.80 8.48Q38.85 8.60 38.85 8.77L38.85 8.77Q38.85 9.05 38.76 9.67Q38.67 10.28 38.67 10.77L38.67 10.77Q38.67 10.91 38.69 11.08Q38.71 11.26 38.74 11.29L38.74 11.29Q39.94 10.14 41.16 9.51Q42.38 8.88 43.99 8.88L43.99 8.88Q45.81 8.88 47.06 10.23Q48.30 11.57 48.30 13.88L48.30 13.88L48.30 21.59Q48.30 22.29 48.70 22.51Q49.11 22.74 49.63 22.91L49.63 22.91Q49.91 23.02 50.12 23.18Q50.33 23.34 50.33 23.61L50.33 23.61Q50.33 23.86 50.14 23.98Q49.95 24.11 49.73 24.11L49.73 24.11Q49.03 24.11 48.42 24.05Q47.81 24 47.23 23.96Q46.66 23.93 46.02 23.93L46.02 23.93Q45.43 23.93 44.84 23.96Q44.24 24 43.64 24.05Q43.05 24.11 42.35 24.11L42.35 24.11Q42.14 24.11 41.95 23.98Q41.75 23.86 41.75 23.61L41.75 23.61Q41.75 23.34 41.97 23.18Q42.17 23.02 42.45 22.91L42.45 22.91Q42.98 22.74 43.33 22.51Q43.68 22.29 43.68 21.59L43.68 21.59L43.68 14.62Q43.68 13.29 43.07 12.54Q42.45 11.78 41.44 11.75L41.44 11.75Q40.67 11.75 40.08 11.99Q39.48 12.24 38.85 12.66L38.85 12.66Q38.71 12.80 38.64 12.97Q38.57 13.15 38.57 13.32L38.57 13.32L38.57 21.59Q38.57 22.29 38.95 22.51Q39.34 22.74 39.83 22.91L39.83 22.91Q40.53 23.13 40.53 23.61L40.53 23.61Q40.53 23.82 40.35 23.96Q40.18 24.11 39.94 24.11L39.94 24.11Q39.23 24.11 38.64 24.05Q38.05 24 37.52 23.96Q36.99 23.93 36.37 23.93L36.37 23.93Q35.77 23.93 35.16 23.96Q34.55 24 33.90 24.05Q33.25 24.11 32.55 24.11ZM56.31 24.49L56.31 24.49Q55.16 24.49 54.08 24.21Q52.99 23.93 52.12 23.30L52.12 23.30Q51.80 22.77 51.66 21.66Q51.52 20.54 51.55 19.31L51.55 19.31Q51.55 18.89 52.26 18.89L52.26 18.89Q52.53 18.89 52.74 19.06Q52.95 19.24 52.99 19.41L52.99 19.41Q53.66 20.88 54.53 21.92Q55.41 22.95 56.63 22.95L56.63 22.95Q57.58 22.95 58.06 22.37Q58.55 21.80 58.55 21.06L58.55 21.06Q58.55 20.15 57.84 19.54Q57.12 18.93 56.10 18.40L56.10 18.40Q55.09 17.88 54.18 17.21Q53.27 16.54 52.69 15.62Q52.12 14.69 52.12 13.39L52.12 13.39Q52.12 12.03 52.87 11.01Q53.62 10.00 54.90 9.42Q56.17 8.84 57.75 8.84L57.75 8.84Q58.91 8.84 59.88 9.11Q60.87 9.37 61.22 9.61L61.22 9.61Q61.50 9.96 61.67 10.93Q61.84 11.89 61.84 13.04L61.84 13.04Q61.84 13.43 61.22 13.43L61.22 13.43Q60.97 13.43 60.71 13.25Q60.45 13.08 60.38 12.90L60.38 12.90Q59.92 11.54 59.20 10.86Q58.48 10.17 57.61 10.17L57.61 10.17Q56.84 10.17 56.21 10.66Q55.58 11.15 55.58 11.99L55.58 11.99Q55.58 12.73 56.26 13.31Q56.95 13.88 57.96 14.44L57.96 14.44Q60.23 15.63 61.22 16.74Q62.20 17.84 62.20 19.66L62.20 19.66Q62.20 21.93 60.71 23.21Q59.22 24.49 56.31 24.49ZM63.53 24.18L63.53 24.18Q63.14 24.18 62.88 24.05Q62.62 23.93 62.62 23.61L62.62 23.61Q62.62 23.27 62.84 23.11Q63.07 22.95 63.46 22.84L63.46 22.84Q64.47 22.57 65.22 21.97Q65.98 21.38 66.36 20.50L66.36 20.50Q67.23 18.54 68.01 16.63Q68.78 14.72 69.51 12.85Q70.25 10.98 70.98 9.04Q71.72 7.09 72.45 5.10L72.45 5.10Q72.98 3.66 73.12 3.02Q73.26 2.37 73.33 2.26L73.33 2.26Q73.95 2.09 74.52 1.95Q75.08 1.81 75.70 1.56L75.70 1.56Q76.34 1.32 76.77 0.93Q77.21 0.55 77.42 0.34L77.42 0.34Q77.56 0.23 77.70 0.22Q77.84 0.20 77.98 0.44L77.98 0.44Q78.09 0.65 78.17 0.88Q78.26 1.11 78.33 1.39L78.33 1.39Q79.06 3.73 79.84 6.17Q80.61 8.60 81.39 11.01Q82.18 13.43 82.95 15.79Q83.72 18.16 84.46 20.39L84.46 20.39Q84.67 21.09 85.10 21.59Q85.54 22.07 86.10 22.36Q86.66 22.63 87.36 22.84L87.36 22.84Q87.75 22.95 87.97 23.11Q88.20 23.27 88.20 23.58L88.20 23.58Q88.20 23.82 87.99 23.96Q87.78 24.11 87.50 24.11L87.50 24.11Q86.80 24.11 85.77 24.05Q84.73 24 83.69 23.96Q82.64 23.93 81.83 23.93L81.83 23.93Q81.17 23.93 80.20 23.96Q79.24 24 78.26 24.04Q77.28 24.07 76.58 24.07L76.58 24.07Q76.27 24.07 76.04 23.95Q75.81 23.82 75.81 23.58L75.81 23.58Q75.81 23.27 76.06 23.09Q76.30 22.91 76.65 22.84L76.65 22.84Q77.95 22.57 78.54 22.11Q79.14 21.66 78.93 20.75L78.93 20.75Q78.78 20.08 78.58 19.34Q78.37 18.61 78.17 17.86Q77.98 17.11 77.77 16.41L77.77 16.41Q77.70 16.13 77.59 15.98Q77.49 15.84 77.18 15.84L77.18 15.84L70.98 15.84Q70.73 15.84 70.59 15.98Q70.45 16.13 70.39 16.44L70.39 16.44Q70.25 16.93 70.07 17.42Q69.90 17.91 69.74 18.40Q69.58 18.89 69.44 19.38Q69.30 19.87 69.16 20.32L69.16 20.32Q68.92 21.38 69.37 21.93Q69.83 22.50 71.33 22.84L71.33 22.84Q72.17 23.02 72.17 23.58L72.17 23.58Q72.17 23.82 71.98 23.95Q71.78 24.07 71.37 24.07L71.37 24.07Q70.35 24.07 69.48 24.02Q68.60 23.96 67.55 23.96L67.55 23.96Q66.50 23.96 65.56 24.07Q64.61 24.18 63.53 24.18ZM71.96 13.95L71.96 13.95L76.51 13.95Q77.03 13.95 77.03 13.71L77.03 13.71Q77.03 13.60 77.02 13.53Q77 13.46 76.97 13.36L76.97 13.36L74.62 5.45Q74.52 5.06 74.41 5.06L74.41 5.06Q74.34 5.06 74.17 5.45L74.17 5.45L71.40 13.36Q71.33 13.50 71.33 13.64L71.33 13.64Q71.33 13.81 71.52 13.88Q71.72 13.95 71.96 13.95ZM88.83 24.11L88.83 24.11Q88.55 24.11 88.34 23.98Q88.13 23.86 88.13 23.61L88.13 23.61Q88.13 23.05 88.87 22.88L88.87 22.88Q90.20 22.60 90.72 22.16Q91.25 21.73 91.25 20.61L91.25 20.61L91.25 4.71Q91.25 3.59 90.79 3.12Q90.34 2.65 88.94 2.33L88.94 2.33Q88.20 2.16 88.20 1.60L88.20 1.60Q88.20 1.35 88.41 1.21Q88.62 1.07 88.90 1.07L88.90 1.07Q89.71 1.07 90.60 1.11Q91.49 1.14 92.35 1.20Q93.21 1.25 93.94 1.25L93.94 1.25Q94.64 1.25 95.53 1.21Q96.43 1.18 97.35 1.14Q98.28 1.11 99.05 1.11L99.05 1.11Q99.37 1.11 99.54 1.23Q99.72 1.35 99.72 1.60L99.72 1.60Q99.72 1.95 99.52 2.09Q99.33 2.23 98.95 2.33L98.95 2.33Q97.55 2.72 97.09 3.19Q96.64 3.66 96.64 4.75L96.64 4.75L96.64 20.57Q96.64 21.59 97.14 22.06Q97.65 22.53 99.02 22.88L99.02 22.88Q99.37 22.98 99.56 23.13Q99.75 23.27 99.75 23.58L99.75 23.58Q99.75 23.82 99.59 23.96Q99.44 24.11 99.12 24.11L99.12 24.11Q98.35 24.11 97.41 24.05Q96.46 24 95.55 23.96Q94.64 23.93 93.94 23.93L93.94 23.93Q93.21 23.93 92.33 23.96Q91.46 24 90.55 24.05Q89.64 24.11 88.83 24.11Z"/></g>
            
          </svg>
        